<svg width="226" height="238" viewBox="0 0 226 238" fill="none" xmlns="http://www.w3.org/2000/svg">
<path d="M24.1934 197.962C26.2479 200.15 27.3932 203.036 27.3975 206.037C27.4165 209.059 26.259 211.97 24.1695 214.155C21.9919 216.517 19.0852 217.687 15.4543 217.687H6.5328V227.937H0V194.392H15.7373C19.2243 194.382 22.035 195.575 24.1934 197.962ZM19.397 210.105C20.4288 209.02 20.9995 207.577 20.9894 206.08C21.0054 204.592 20.4531 203.154 19.4449 202.059C18.959 201.503 18.3574 201.06 17.6822 200.76C17.007 200.461 16.2745 200.312 15.5358 200.324H6.51842V211.826H15.2288C16.0086 211.855 16.7855 211.716 17.507 211.419C18.2286 211.122 18.878 210.674 19.4114 210.105H19.397Z" fill="#142A5B"/>
<path d="M32.4672 199.203C32.1124 198.861 31.8318 198.45 31.6429 197.994C31.4539 197.539 31.3606 197.05 31.3688 196.558C31.3609 196.072 31.4545 195.591 31.6436 195.143C31.8328 194.696 32.1133 194.293 32.4672 193.96C32.8247 193.616 33.2469 193.345 33.7095 193.164C34.1722 192.983 34.6661 192.895 35.1628 192.906C35.6559 192.896 36.1461 192.984 36.6048 193.165C37.0635 193.346 37.4815 193.616 37.8344 193.96C38.1883 194.293 38.4688 194.696 38.658 195.143C38.8471 195.591 38.9407 196.072 38.9328 196.558C38.9433 197.051 38.851 197.54 38.662 197.996C38.4729 198.451 38.1911 198.862 37.8344 199.203C37.4859 199.555 37.0691 199.831 36.6097 200.016C36.1502 200.2 35.6578 200.289 35.1628 200.277C34.6641 200.289 34.1681 200.201 33.7047 200.016C33.2414 199.832 32.8204 199.555 32.4672 199.203ZM31.882 203.693H38.2565V227.937H31.882V203.693Z" fill="#142A5B"/>
<path d="M66.3254 205.893C67.937 207.81 68.7572 210.436 68.7572 213.757V227.937H62.4115V214.95C62.4115 213.033 61.9654 211.596 61.1021 210.503C60.2387 209.41 58.9436 208.912 57.2361 208.912C56.429 208.881 55.6258 209.038 54.8899 209.371C54.154 209.704 53.5056 210.203 52.996 210.829C51.9216 212.107 51.3828 213.814 51.3796 215.952V227.932H45.0579V203.693H51.3796V206.76C52.2875 205.555 53.4723 204.586 54.8338 203.935C56.1954 203.283 57.6938 202.969 59.2027 203.017C62.3204 203.017 64.685 203.976 66.3254 205.893Z" fill="#142A5B"/>
<path d="M90.6195 227.151C88.8226 227.893 86.8992 228.282 84.9548 228.296C82.2592 228.296 80.2447 227.525 78.8873 226.006C77.5299 224.487 76.8488 222.354 76.8488 219.637V209.243H72.7766V203.693H76.8488V195.834H83.2185V203.693H90.3365V209.243H83.2377V219.651C83.2377 221.688 84.197 222.718 86.2115 222.718C87.2111 222.721 88.1971 222.488 89.0894 222.038L90.6195 227.151Z" fill="#142A5B"/>
<path d="M96.2748 224.942C93.9582 222.484 92.8118 219.441 92.8118 215.837C92.8118 212.233 93.9582 209.094 96.2748 206.665C97.3591 205.492 98.6797 204.563 100.15 203.938C101.62 203.312 103.206 203.005 104.803 203.037C108.127 203.037 110.727 204.23 112.602 206.641V203.713H118.996V227.957H112.602V224.985C110.728 227.42 108.129 228.637 104.803 228.637C103.199 228.669 101.608 228.355 100.136 227.718C98.6646 227.08 97.3477 226.134 96.2748 224.942ZM110.823 220.917C111.485 220.238 112.003 219.431 112.345 218.547C112.687 217.662 112.846 216.718 112.813 215.77C112.844 214.833 112.683 213.899 112.341 213.026C111.999 212.152 111.482 211.358 110.823 210.69C110.183 210.038 109.416 209.523 108.57 209.176C107.724 208.83 106.816 208.661 105.901 208.678C104.992 208.647 104.086 208.808 103.243 209.151C102.4 209.494 101.639 210.01 101.009 210.666C100.364 211.346 99.8623 212.148 99.5328 213.024C99.2033 213.901 99.0528 214.834 99.0904 215.77C99.0508 216.716 99.2001 217.66 99.5295 218.548C99.8589 219.436 100.362 220.249 101.009 220.941C101.637 221.601 102.398 222.121 103.241 222.468C104.084 222.814 104.99 222.98 105.901 222.954C106.818 222.973 107.728 222.802 108.575 222.452C109.422 222.102 110.187 221.581 110.823 220.922V220.917Z" fill="#142A5B"/>
<path d="M140.014 203.343V209.286C137.366 208.864 135.351 209.31 134.018 210.623C132.685 211.936 132.003 214.202 132.003 217.384V227.927H125.682V203.693H132.003V207.273C133.596 204.139 136.266 202.829 140.014 203.343Z" fill="#142A5B"/>
<path d="M165.881 205.893C167.498 207.81 168.318 210.436 168.318 213.757V227.937H161.972V214.95C161.972 213.033 161.526 211.596 160.658 210.503C159.79 209.41 158.504 208.912 156.792 208.912C155.985 208.881 155.183 209.038 154.448 209.371C153.712 209.703 153.065 210.203 152.557 210.829C151.479 212.107 150.94 213.814 150.94 215.952V227.932H144.614V203.693H150.94V206.76C151.848 205.555 153.032 204.586 154.394 203.934C155.756 203.283 157.254 202.968 158.763 203.018C161.876 203.018 164.241 203.976 165.881 205.893Z" fill="#142A5B"/>
<path d="M198.329 203.693L183.738 238H177.23L181.633 227.4L170.649 203.693H177.604L184.798 220.072L191.542 203.693H198.329Z" fill="#142A5B"/>
<path d="M203.284 224.942C200.962 222.484 199.816 219.441 199.816 215.837C199.816 212.233 200.962 209.095 203.284 206.665C204.367 205.492 205.687 204.562 207.156 203.937C208.625 203.312 210.211 203.005 211.807 203.037C215.131 203.037 217.731 204.23 219.606 206.641V203.713H226V227.957H219.606V224.986C217.729 227.42 215.13 228.637 211.807 228.637C210.204 228.669 208.613 228.356 207.143 227.718C205.672 227.08 204.356 226.134 203.284 224.942ZM217.827 220.922C218.494 220.244 219.017 219.438 219.363 218.552C219.709 217.667 219.872 216.72 219.841 215.77C219.872 214.833 219.711 213.899 219.369 213.026C219.027 212.152 218.51 211.358 217.851 210.69C217.211 210.038 216.444 209.523 215.598 209.177C214.752 208.83 213.844 208.661 212.93 208.678C212.02 208.647 211.114 208.808 210.271 209.151C209.428 209.494 208.667 210.01 208.037 210.666C207.393 211.346 206.891 212.148 206.561 213.024C206.232 213.901 206.081 214.835 206.119 215.77C206.079 216.716 206.228 217.661 206.557 218.548C206.887 219.436 207.39 220.249 208.037 220.941C208.666 221.601 209.426 222.121 210.269 222.468C211.112 222.814 212.018 222.98 212.93 222.954C213.842 222.97 214.748 222.798 215.59 222.448C216.433 222.099 217.194 221.579 217.827 220.922Z" fill="#142A5B"/>
<path d="M72.7345 107.665C72.078 107.665 71.4322 107.499 70.8575 107.182C70.2828 106.865 69.7982 106.407 69.4489 105.851C68.9293 105.053 68.4177 104.254 67.9301 103.455C67.9136 103.422 67.895 103.39 67.8741 103.36C63.9936 96.7706 61.686 89.3764 61.1305 81.7516C60.575 74.1268 61.7865 66.4767 64.6711 59.3957C67.5556 52.3147 72.0353 45.9936 77.7623 40.9235C83.4892 35.8533 90.3091 32.1707 97.692 30.1618C105.075 28.153 112.822 27.8719 120.331 29.3404C127.841 30.809 134.91 33.9876 140.99 38.6293C147.07 43.2711 151.997 49.2509 155.388 56.1042C158.779 62.9574 160.542 70.4996 160.542 78.1446C160.541 81.3099 160.241 84.4681 159.647 87.5772C159.647 87.5772 159.647 87.6172 159.647 87.6411C158.578 93.1955 156.558 98.5239 153.675 103.391C153.163 104.262 152.644 105.069 152.124 105.851C151.546 106.675 150.672 107.244 149.685 107.44C148.697 107.635 147.672 107.443 146.823 106.903C145.974 106.362 145.367 105.515 145.127 104.538C144.887 103.561 145.034 102.53 145.537 101.658L145.625 101.515C146.073 100.852 146.52 100.149 146.944 99.4379C149.363 95.3516 151.061 90.8804 151.964 86.2194C151.964 86.2194 151.964 86.1795 151.964 86.1555C153.258 79.499 152.916 72.6282 150.968 66.1328C149.019 59.6373 145.523 53.7111 140.778 48.8625C136.034 44.014 130.182 40.3879 123.727 38.2954C117.271 36.2029 110.404 35.7064 103.714 36.8486C97.0237 37.9908 90.711 40.7376 85.3171 44.8532C79.9233 48.9688 75.6093 54.3304 72.7454 60.478C69.8814 66.6256 68.5531 73.3756 68.8742 80.1489C69.1953 86.9221 71.1564 93.5165 74.5891 99.366L74.6371 99.4459C75.0608 100.173 75.5085 100.868 75.9641 101.539C76.0121 101.602 76.0521 101.682 76.1 101.754C76.4533 102.348 76.6429 103.024 76.6494 103.714C76.6559 104.405 76.4791 105.084 76.137 105.684C75.795 106.284 75.2999 106.783 74.7022 107.129C74.1045 107.476 73.4255 107.658 72.7345 107.657V107.665Z" fill="#2A83FD"/>
<path d="M107.069 145.227C106.296 145.227 105.54 144.998 104.897 144.569C104.255 144.14 103.754 143.53 103.458 142.816C103.162 142.103 103.084 141.317 103.235 140.56C103.386 139.802 103.758 139.106 104.305 138.56C104.852 138.014 105.548 137.642 106.307 137.491C107.065 137.341 107.851 137.418 108.565 137.713C109.28 138.009 109.89 138.51 110.32 139.152C110.749 139.794 110.978 140.549 110.978 141.322C110.978 142.358 110.567 143.351 109.833 144.084C109.1 144.816 108.106 145.227 107.069 145.227Z" fill="#2A83FD"/>
<path d="M155.801 90.812C154.765 90.812 153.77 90.4005 153.037 89.6681C152.304 88.9356 151.892 87.9422 151.892 86.9064C151.892 86.1339 152.122 85.3788 152.551 84.7365C152.981 84.0942 153.591 83.5936 154.305 83.298C155.02 83.0024 155.806 82.9251 156.564 83.0758C157.322 83.2265 158.019 83.5984 158.566 84.1447C159.112 84.6909 159.485 85.3868 159.635 86.1444C159.786 86.902 159.709 87.6873 159.413 88.401C159.117 89.1147 158.616 89.7246 157.973 90.1538C157.33 90.5829 156.575 90.812 155.801 90.812Z" fill="#2A83FD"/>
<path d="M94.7982 142.52C93.7615 142.52 92.7672 142.108 92.0341 141.376C91.301 140.644 90.8891 139.65 90.8891 138.614C90.8891 137.842 91.1184 137.087 91.5479 136.444C91.9775 135.802 92.588 135.302 93.3023 135.006C94.0166 134.71 94.8026 134.633 95.5609 134.784C96.3192 134.934 97.0157 135.306 97.5624 135.853C98.1091 136.399 98.4814 137.095 98.6323 137.852C98.7831 138.61 98.7057 139.395 98.4098 140.109C98.1139 140.823 97.6129 141.433 96.97 141.862C96.3272 142.291 95.5714 142.52 94.7982 142.52Z" fill="#2A83FD"/>
<path d="M97.828 122.584C97.1362 122.586 96.4567 122.401 95.8615 122.049C95.4181 121.792 95.0299 121.449 94.7192 121.041C94.4084 120.634 94.1812 120.169 94.0505 119.673C93.9198 119.178 93.8883 118.661 93.9576 118.153C94.0269 117.646 94.1957 117.156 94.4545 116.714C96.6594 112.938 98.2539 108.838 99.179 104.566C99.8121 101.639 100.131 98.654 100.13 95.6602C100.15 87.0126 97.4729 78.5736 92.472 71.5155C91.8751 70.6682 91.6396 69.6187 91.8173 68.5979C91.9949 67.5771 92.5712 66.6686 93.4193 66.0723C94.2673 65.476 95.3177 65.2408 96.3394 65.4182C97.3611 65.5957 98.2704 66.1715 98.8672 67.0188C104.356 74.7964 107.494 83.9854 107.908 93.4931C108.322 103.001 105.994 112.427 101.202 120.652C100.858 121.241 100.366 121.73 99.7736 122.069C99.1815 122.408 98.5106 122.586 97.828 122.584Z" fill="#2A83FD"/>
<path d="M112.497 100.932C109.943 100.93 107.4 100.576 104.943 99.8773C103.984 99.5625 103.185 98.8894 102.711 97.999C102.238 97.1086 102.128 96.0697 102.403 95.0999C102.679 94.13 103.319 93.3043 104.191 92.7954C105.062 92.2865 106.096 92.1339 107.077 92.3695C110.715 93.4077 114.576 93.3778 118.197 92.2837C121.819 91.1895 125.049 89.0772 127.501 86.1989C129.954 83.3206 131.526 79.7979 132.029 76.0513C132.533 72.3048 131.946 68.4926 130.34 65.0699C128.256 60.6901 124.647 57.218 120.188 55.3018C113.984 52.6661 106.35 53.6166 101.042 54.8785C95.8219 56.1271 90.889 58.3609 86.5085 61.4598C82.1866 64.5316 78.4775 68.3836 75.5725 72.8173C72.6369 77.3304 70.5986 82.3661 69.5689 87.6492C69.3718 88.6649 68.7788 89.5608 67.9205 90.1397C67.0622 90.7186 66.0089 90.9332 64.9923 90.7362C63.9757 90.5392 63.079 89.9468 62.4996 89.0893C61.9201 88.2317 61.7054 87.1794 61.9026 86.1636C63.7288 76.7882 68.218 68.1362 74.8339 61.2415C81.4498 54.3468 89.9126 49.5009 99.2111 47.2829C108.596 45.0545 116.67 45.334 123.193 48.0816C128.173 50.1857 132.421 53.7097 135.407 58.2129C138.393 62.7161 139.984 67.9987 139.981 73.4004C139.981 80.6897 137.088 87.6815 131.936 92.8425C126.784 98.0036 119.793 100.913 112.497 100.932Z" fill="#2A83FD"/>
<path d="M135.265 129.07C134.566 129.068 133.881 128.879 133.281 128.523C132.681 128.166 132.187 127.656 131.85 127.045C131.514 126.433 131.348 125.743 131.369 125.046C131.391 124.348 131.598 123.67 131.971 123.08L146.976 99.3742C147.53 98.5378 148.385 97.9469 149.363 97.7242C150.342 97.5015 151.369 97.6642 152.23 98.1784C153.092 98.6927 153.722 99.5189 153.99 100.485C154.257 101.452 154.142 102.484 153.667 103.368L153.587 103.511L138.574 127.233C138.223 127.794 137.735 128.256 137.156 128.577C136.577 128.899 135.927 129.068 135.265 129.07Z" fill="#2A83FD"/>
<path d="M98.0918 147.711C97.4331 147.712 96.7848 147.547 96.2075 147.229C95.6302 146.912 95.1426 146.455 94.7903 145.898L91.4967 140.699L91.4327 140.603L69.4489 105.86L69.401 105.78L67.978 103.535L67.922 103.447C67.6281 103.012 67.425 102.522 67.325 102.006C67.225 101.491 67.23 100.961 67.3399 100.447C67.4498 99.9334 67.6621 99.4473 67.9644 99.0176C68.2666 98.5879 68.6524 98.2236 69.0988 97.9463C69.5452 97.6691 70.0429 97.4846 70.5623 97.4039C71.0817 97.3233 71.612 97.3481 72.1216 97.4769C72.6311 97.6057 73.1095 97.8359 73.5279 98.1536C73.9464 98.4714 74.2965 98.8702 74.5572 99.3262L76.0281 101.65L76.084 101.738L98.0998 136.53L98.1558 136.625L99.8345 139.277L106.03 137.568H106.102L122.85 132.935C123.344 132.799 123.86 132.76 124.368 132.823C124.877 132.885 125.369 133.047 125.815 133.299C126.261 133.551 126.653 133.889 126.969 134.292C127.284 134.696 127.517 135.158 127.654 135.651C127.791 136.145 127.829 136.66 127.767 137.168C127.705 137.677 127.542 138.168 127.29 138.614C127.038 139.059 126.7 139.451 126.296 139.766C125.892 140.082 125.43 140.314 124.936 140.451L108.148 145.108H108.068L99.163 147.576C98.8141 147.671 98.4535 147.716 98.0918 147.711Z" fill="#2A83FD"/>
<path d="M105.015 158.67C104.068 158.674 103.151 158.334 102.437 157.714C101.722 157.093 101.257 156.233 101.13 155.296C101.003 154.358 101.222 153.406 101.745 152.618C102.269 151.829 103.061 151.258 103.975 151.01L118.461 147.017C118.961 146.861 119.487 146.807 120.009 146.858C120.53 146.909 121.036 147.065 121.496 147.315C121.956 147.566 122.361 147.906 122.687 148.316C123.013 148.726 123.253 149.197 123.393 149.702C123.533 150.206 123.57 150.734 123.502 151.253C123.434 151.772 123.262 152.272 122.996 152.723C122.731 153.175 122.377 153.568 121.956 153.88C121.536 154.193 121.057 154.417 120.547 154.54L106.062 158.534C105.72 158.625 105.368 158.671 105.015 158.67Z" fill="#2A83FD"/>
<path d="M109.148 170.402C108.201 170.407 107.284 170.067 106.569 169.446C105.855 168.825 105.39 167.966 105.263 167.028C105.136 166.091 105.355 165.139 105.878 164.35C106.402 163.562 107.194 162.991 108.108 162.743L111.466 161.816C111.96 161.68 112.476 161.642 112.984 161.705C113.493 161.768 113.984 161.93 114.43 162.183C114.876 162.435 115.267 162.773 115.582 163.177C115.898 163.581 116.13 164.043 116.266 164.536C116.403 165.03 116.441 165.545 116.378 166.053C116.315 166.561 116.152 167.052 115.9 167.497C115.647 167.943 115.309 168.334 114.905 168.649C114.501 168.964 114.038 169.196 113.544 169.332L110.187 170.267C109.848 170.359 109.499 170.405 109.148 170.402Z" fill="#2A83FD"/>
<path d="M110.747 16.2935C109.71 16.2935 108.716 15.882 107.982 15.1496C107.249 14.4171 106.837 13.4237 106.837 12.3879V3.90565C106.837 2.86981 107.249 1.87639 107.982 1.14394C108.716 0.411489 109.71 0 110.747 0C111.783 0 112.778 0.411489 113.511 1.14394C114.244 1.87639 114.656 2.86981 114.656 3.90565V12.3879C114.656 12.9007 114.555 13.4086 114.358 13.8825C114.162 14.3563 113.874 14.7869 113.511 15.1496C113.148 15.5122 112.717 15.7999 112.243 15.9962C111.768 16.1925 111.26 16.2935 110.747 16.2935Z" fill="#2A83FD"/>
<path d="M44.9551 82.0581H36.4573C35.4522 82.0127 34.5033 81.5818 33.8081 80.855C33.1129 80.1283 32.7249 79.1618 32.7249 78.1565C32.7249 77.1512 33.1129 76.1847 33.8081 75.4579C34.5033 74.7312 35.4522 74.3003 36.4573 74.2548H44.9551C45.9602 74.3003 46.9091 74.7312 47.6043 75.4579C48.2995 76.1847 48.6874 77.1512 48.6874 78.1565C48.6874 79.1618 48.2995 80.1283 47.6043 80.855C46.9091 81.5818 45.9602 82.0127 44.9551 82.0581Z" fill="#2A83FD"/>
<path d="M185.092 82.0581H176.602C175.597 82.0127 174.648 81.5818 173.953 80.855C173.258 80.1283 172.87 79.1618 172.87 78.1565C172.87 77.1512 173.258 76.1847 173.953 75.4579C174.648 74.7312 175.597 74.3003 176.602 74.2548H185.092C186.097 74.3003 187.046 74.7312 187.741 75.4579C188.436 76.1847 188.824 77.1512 188.824 78.1565C188.824 79.1618 188.436 80.1283 187.741 80.855C187.046 81.5818 186.097 82.0127 185.092 82.0581Z" fill="#2A83FD"/>
<path d="M64.2368 35.558C63.7216 35.5553 63.212 35.4509 62.7373 35.2508C62.2626 35.0507 61.8322 34.7588 61.4708 34.3919L57.4738 30.3984C56.7888 29.6571 56.4175 28.6798 56.4377 27.6711C56.4578 26.6624 56.8678 25.7007 57.5818 24.9873C58.2958 24.2739 59.2585 23.8643 60.268 23.8441C61.2776 23.824 62.2558 24.195 62.9977 24.8793L66.9948 28.8728C67.539 29.419 67.9093 30.1138 68.0591 30.8698C68.2089 31.6258 68.1315 32.4092 67.8367 33.1213C67.5418 33.8335 67.0427 34.4425 66.4021 34.8719C65.7615 35.3012 65.0081 35.5316 64.2368 35.534V35.558Z" fill="#2A83FD"/>
<path d="M161.325 132.56C160.813 132.562 160.305 132.462 159.831 132.266C159.358 132.07 158.928 131.782 158.567 131.418L154.57 127.424C154.183 127.068 153.873 126.636 153.657 126.157C153.441 125.677 153.324 125.159 153.314 124.633C153.303 124.107 153.399 123.584 153.596 123.096C153.792 122.608 154.085 122.165 154.458 121.793C154.83 121.421 155.274 121.128 155.762 120.932C156.25 120.735 156.774 120.639 157.3 120.65C157.826 120.66 158.345 120.777 158.825 120.993C159.305 121.208 159.737 121.519 160.094 121.905L164.091 125.899C164.636 126.446 165.006 127.141 165.156 127.898C165.305 128.655 165.227 129.439 164.932 130.151C164.636 130.863 164.135 131.472 163.494 131.901C162.852 132.33 162.097 132.559 161.325 132.56Z" fill="#2A83FD"/>
<path d="M60.2316 132.56C59.4596 132.559 58.7051 132.33 58.0633 131.901C57.4215 131.472 56.9211 130.863 56.6253 130.151C56.3295 129.439 56.2514 128.655 56.401 127.898C56.5505 127.141 56.921 126.446 57.4657 125.899L61.4627 121.905C61.8199 121.519 62.2515 121.208 62.7316 120.993C63.2118 120.777 63.7306 120.66 64.257 120.65C64.7834 120.639 65.3064 120.735 65.7948 120.932C66.2832 121.128 66.7269 121.421 67.0991 121.793C67.4714 122.165 67.7647 122.608 67.9613 123.096C68.1579 123.584 68.2538 124.107 68.2433 124.633C68.2328 125.159 68.1161 125.677 67.9001 126.157C67.6842 126.636 67.3735 127.068 66.9867 127.424L62.9896 131.418C62.6288 131.782 62.1991 132.07 61.7256 132.266C61.2521 132.462 60.7442 132.562 60.2316 132.56Z" fill="#2A83FD"/>
<path d="M157.32 35.5579C156.549 35.5555 155.796 35.3251 155.155 34.8958C154.514 34.4665 154.015 33.8574 153.72 33.1453C153.426 32.4331 153.348 31.6497 153.498 30.8938C153.648 30.1378 154.018 29.443 154.562 28.8968L158.559 24.9033C159.304 24.2491 160.27 23.9019 161.261 23.9322C162.252 23.9625 163.194 24.3679 163.897 25.0663C164.6 25.7648 165.012 26.7041 165.048 27.694C165.084 28.684 164.742 29.6507 164.091 30.3983L160.094 34.3918C159.731 34.759 159.3 35.051 158.824 35.2511C158.348 35.4512 157.837 35.5555 157.32 35.5579Z" fill="#2A83FD"/>
</svg>
