<svg width="149" height="161" viewBox="0 0 149 161" fill="none" xmlns="http://www.w3.org/2000/svg">
<path d="M38.1388 101.638C37.513 101.638 36.8973 101.482 36.3495 101.182C35.8017 100.883 35.3397 100.451 35.0068 99.9265C34.5115 99.1725 34.0238 98.4185 33.559 97.6645C33.5433 97.6332 33.5255 97.6029 33.5056 97.574C29.8066 91.3539 27.6069 84.3735 27.0774 77.1755C26.5478 69.9775 27.7027 62.7556 30.4524 56.0709C33.202 49.3863 37.4723 43.419 42.9314 38.6326C48.3906 33.8463 54.8916 30.3698 61.9292 28.4734C68.9669 26.5769 76.3517 26.3116 83.5099 27.6979C90.668 29.0843 97.4067 32.085 103.202 36.4669C108.998 40.8488 113.695 46.494 116.927 52.9636C120.159 59.4333 121.841 66.5533 121.84 73.7704C121.839 76.7586 121.554 79.74 120.987 82.6751C120.987 82.6751 120.987 82.7128 120.987 82.7354C119.968 87.9789 118.043 93.009 115.294 97.6042C114.807 98.4261 114.311 99.1876 113.816 99.9265C113.265 100.704 112.432 101.241 111.491 101.426C110.549 101.611 109.572 101.429 108.763 100.919C107.954 100.409 107.374 99.6091 107.146 98.6868C106.918 97.7646 107.058 96.7907 107.537 95.968L107.621 95.8323C108.048 95.2065 108.474 94.543 108.878 93.8719C111.184 90.0143 112.803 85.7934 113.664 81.3933C113.664 81.3933 113.664 81.3556 113.664 81.333C114.897 75.049 114.571 68.5628 112.714 62.4309C110.856 56.299 107.523 50.7045 103.001 46.1273C98.4779 41.5502 92.9003 38.127 86.7465 36.1517C80.5927 34.1763 74.0464 33.7076 67.6693 34.7859C61.2922 35.8641 55.2746 38.4571 50.133 42.3424C44.9914 46.2277 40.8791 51.2892 38.1491 57.0927C35.4191 62.8962 34.1529 69.2683 34.459 75.6625C34.7651 82.0567 36.6345 88.2819 39.9067 93.8041L39.9524 93.8794C40.3563 94.5656 40.783 95.2216 41.2174 95.8549C41.2631 95.9153 41.3012 95.9906 41.3469 96.0585C41.6837 96.6186 41.8644 97.2571 41.8706 97.9088C41.8768 98.5606 41.7082 99.2023 41.3822 99.7686C41.0561 100.335 40.5842 100.806 40.0144 101.133C39.4447 101.46 38.7975 101.632 38.1388 101.631V101.638Z" fill="#2A83FD"/>
<path d="M70.868 137.098C70.131 137.098 69.4106 136.882 68.7978 136.477C68.185 136.072 67.7074 135.496 67.4253 134.822C67.1433 134.149 67.0695 133.407 67.2133 132.692C67.357 131.977 67.7119 131.32 68.2331 130.804C68.7542 130.289 69.4182 129.937 70.141 129.795C70.8639 129.653 71.6131 129.726 72.294 130.005C72.9749 130.284 73.5569 130.757 73.9663 131.363C74.3758 131.969 74.5943 132.682 74.5943 133.411C74.5943 134.389 74.2017 135.327 73.5029 136.018C72.8041 136.71 71.8563 137.098 70.868 137.098Z" fill="#2A83FD"/>
<path d="M117.321 85.7291C116.333 85.7291 115.385 85.3406 114.686 84.6492C113.988 83.9577 113.595 83.0199 113.595 82.042C113.595 81.3128 113.814 80.6 114.223 79.9936C114.633 79.3873 115.215 78.9147 115.895 78.6357C116.576 78.3566 117.326 78.2836 118.048 78.4258C118.771 78.5681 119.435 78.9193 119.956 79.4349C120.477 79.9506 120.832 80.6075 120.976 81.3227C121.12 82.0379 121.046 82.7793 120.764 83.453C120.482 84.1267 120.004 84.7026 119.392 85.1077C118.779 85.5128 118.058 85.7291 117.321 85.7291Z" fill="#2A83FD"/>
<path d="M59.1708 134.543C58.1825 134.543 57.2347 134.155 56.5358 133.463C55.837 132.772 55.4444 131.834 55.4444 130.856C55.4444 130.127 55.663 129.414 56.0724 128.808C56.4819 128.201 57.0639 127.729 57.7447 127.45C58.4256 127.171 59.1749 127.098 59.8977 127.24C60.6206 127.382 61.2845 127.733 61.8057 128.249C62.3268 128.765 62.6817 129.422 62.8255 130.137C62.9693 130.852 62.8955 131.593 62.6134 132.267C62.3314 132.941 61.8538 133.517 61.241 133.922C60.6282 134.327 59.9078 134.543 59.1708 134.543Z" fill="#2A83FD"/>
<path d="M62.0589 115.723C61.3994 115.725 60.7517 115.55 60.1843 115.218C59.7616 114.975 59.3916 114.651 59.0954 114.266C58.7992 113.882 58.5826 113.443 58.458 112.975C58.3334 112.507 58.3033 112.019 58.3694 111.54C58.4355 111.061 58.5964 110.599 58.8431 110.181C60.9449 106.617 62.4648 102.746 63.3467 98.7129C63.9502 95.9504 64.2542 93.1322 64.2535 90.3059C64.2719 82.1423 61.7203 74.1757 56.9533 67.5126C56.3843 66.7127 56.1599 65.722 56.3292 64.7583C56.4986 63.7947 57.0478 62.937 57.8563 62.3741C58.6647 61.8112 59.666 61.5891 60.6399 61.7567C61.6138 61.9242 62.4806 62.4677 63.0495 63.2676C68.2818 70.6099 71.2731 79.2845 71.6675 88.2601C72.062 97.2356 69.8431 106.134 65.2746 113.898C64.9473 114.455 64.4779 114.916 63.9135 115.236C63.3491 115.557 62.7095 115.725 62.0589 115.723Z" fill="#2A83FD"/>
<path d="M76.0422 95.282C73.6069 95.2808 71.1834 94.9459 68.841 94.2867C67.9272 93.9895 67.1649 93.3541 66.7137 92.5135C66.2625 91.6729 66.1573 90.6923 66.4202 89.7767C66.683 88.8611 67.2935 88.0816 68.1239 87.6012C68.9543 87.1208 69.9403 86.9767 70.8756 87.1992C74.3436 88.1792 78.0233 88.151 81.4755 87.1181C84.9277 86.0852 88.0066 84.0911 90.3446 81.3739C92.6826 78.6567 94.1809 75.3312 94.6608 71.7943C95.1406 68.2575 94.5817 64.6587 93.0507 61.4276C91.0636 57.2929 87.6236 54.0151 83.3729 52.2062C77.4596 49.718 70.1822 50.6153 65.1223 51.8066C60.1465 52.9853 55.4442 55.0941 51.2686 58.0195C47.1487 60.9194 43.6132 64.5558 40.844 68.7413C38.0457 73.0018 36.1027 77.7556 35.1211 82.7431C34.9332 83.7019 34.368 84.5476 33.5498 85.0942C32.7317 85.6407 31.7276 85.8432 30.7585 85.6572C29.7894 85.4713 28.9347 84.912 28.3824 84.1025C27.83 83.293 27.6253 82.2995 27.8133 81.3406C29.5541 72.4899 33.8334 64.3222 40.1399 57.8134C46.4465 51.3047 54.5135 46.73 63.3772 44.6361C72.3235 42.5324 80.02 42.7963 86.2382 45.3901C90.9848 47.3765 95.0343 50.7032 97.8805 54.9543C100.727 59.2055 102.243 64.1924 102.241 69.2918C102.241 76.1731 99.4828 82.7735 94.5716 87.6457C89.6603 92.5179 82.9968 95.264 76.0422 95.282Z" fill="#2A83FD"/>
<path d="M97.7448 121.846C97.0792 121.843 96.4263 121.665 95.854 121.329C95.2817 120.993 94.8108 120.511 94.4904 119.934C94.1699 119.356 94.0116 118.705 94.0318 118.047C94.0519 117.388 94.25 116.747 94.6052 116.191L108.909 93.812C109.436 93.0225 110.251 92.4646 111.184 92.2544C112.117 92.0441 113.096 92.1977 113.917 92.6832C114.739 93.1686 115.339 93.9486 115.594 94.861C115.849 95.7733 115.739 96.7479 115.287 97.582L115.211 97.7177L100.9 120.111C100.565 120.641 100.1 121.077 99.548 121.381C98.9963 121.684 98.3759 121.844 97.7448 121.846Z" fill="#2A83FD"/>
<path d="M62.3103 139.444C61.6823 139.445 61.0644 139.288 60.5141 138.989C59.9637 138.69 59.499 138.257 59.1631 137.732L56.0235 132.824L55.9626 132.733L35.0067 99.9346L34.961 99.8592L33.6046 97.7405L33.5513 97.6575C33.2711 97.2465 33.0775 96.7839 32.9822 96.2972C32.8868 95.8105 32.8916 95.3098 32.9963 94.825C33.1011 94.3401 33.3035 93.8812 33.5916 93.4756C33.8797 93.07 34.2475 92.726 34.673 92.4643C35.0985 92.2025 35.573 92.0284 36.0681 91.9522C36.5632 91.8761 37.0687 91.8995 37.5544 92.0211C38.0402 92.1427 38.4961 92.36 38.895 92.66C39.2939 92.9599 39.6276 93.3364 39.8761 93.7669L41.2783 95.961L41.3316 96.044L62.3179 128.888L62.3713 128.978L63.9715 131.482L69.8773 129.868H69.9458L85.9104 125.495C86.3812 125.366 86.8732 125.33 87.3581 125.389C87.8431 125.447 88.3116 125.6 88.7369 125.838C89.1622 126.076 89.5359 126.395 89.8367 126.776C90.1375 127.157 90.3596 127.593 90.4902 128.059C90.6208 128.524 90.6574 129.011 90.5978 129.491C90.5383 129.971 90.3838 130.435 90.1432 130.855C89.9027 131.276 89.5807 131.646 89.1956 131.944C88.8106 132.241 88.3701 132.461 87.8993 132.59L71.8966 136.986H71.8204L63.3314 139.316C62.9988 139.406 62.6551 139.449 62.3103 139.444Z" fill="#2A83FD"/>
<path d="M68.9095 149.788C68.0067 149.793 67.1332 149.472 66.4518 148.886C65.7705 148.3 65.3279 147.488 65.2067 146.603C65.0854 145.718 65.2937 144.819 65.7928 144.075C66.2918 143.331 67.0475 142.791 67.9189 142.558L81.7268 138.788C82.2036 138.64 82.7055 138.589 83.2026 138.638C83.6996 138.686 84.1818 138.833 84.6204 139.07C85.059 139.306 85.4451 139.627 85.7557 140.014C86.0662 140.401 86.295 140.846 86.4284 141.323C86.5618 141.799 86.597 142.297 86.532 142.787C86.467 143.277 86.3031 143.749 86.0501 144.175C85.797 144.601 85.46 144.973 85.0589 145.267C84.6579 145.562 84.2011 145.774 83.7157 145.89L69.9078 149.66C69.5822 149.746 69.2465 149.79 68.9095 149.788Z" fill="#2A83FD"/>
<path d="M72.8492 160.865C71.9464 160.869 71.0729 160.548 70.3915 159.962C69.7102 159.376 69.2676 158.565 69.1464 157.68C69.0251 156.794 69.2334 155.896 69.7325 155.151C70.2315 154.407 70.9872 153.868 71.8586 153.634L75.0591 152.759C75.5299 152.631 76.0218 152.595 76.5066 152.654C76.9913 152.714 77.4596 152.867 77.8845 153.105C78.3094 153.344 78.6827 153.663 78.9831 154.044C79.2834 154.425 79.505 154.861 79.6351 155.327C79.7652 155.793 79.8013 156.279 79.7413 156.759C79.6813 157.239 79.5264 157.702 79.2855 158.122C79.0445 158.543 78.7222 158.912 78.337 159.209C77.9518 159.507 77.5112 159.726 77.0404 159.854L73.8398 160.737C73.517 160.824 73.1838 160.867 72.8492 160.865Z" fill="#2A83FD"/>
<path d="M74.3733 15.3815C73.385 15.3815 72.4372 14.9931 71.7384 14.3016C71.0396 13.6102 70.647 12.6723 70.647 11.6945V3.68704C70.647 2.70918 71.0396 1.77137 71.7384 1.07991C72.4372 0.388457 73.385 0 74.3733 0C75.3616 0 76.3094 0.388457 77.0082 1.07991C77.707 1.77137 78.0996 2.70918 78.0996 3.68704V11.6945C78.0996 12.1787 78.0033 12.6581 77.816 13.1054C77.6287 13.5528 77.3542 13.9592 77.0082 14.3016C76.6622 14.644 76.2514 14.9156 75.7993 15.1009C75.3472 15.2862 74.8627 15.3815 74.3733 15.3815Z" fill="#2A83FD"/>
<path d="M11.6582 77.4648H3.55786C2.59973 77.4219 1.6952 77.0151 1.03251 76.329C0.369823 75.643 0 74.7305 0 73.7815C0 72.8325 0.369823 71.9201 1.03251 71.234C1.6952 70.548 2.59973 70.1412 3.55786 70.0983H11.6582C12.6164 70.1412 13.5209 70.548 14.1836 71.234C14.8463 71.9201 15.2161 72.8325 15.2161 73.7815C15.2161 74.7305 14.8463 75.643 14.1836 76.329C13.5209 77.0151 12.6164 77.4219 11.6582 77.4648Z" fill="#2A83FD"/>
<path d="M145.242 77.4648H137.149C136.191 77.4219 135.287 77.0151 134.624 76.329C133.961 75.643 133.592 74.7305 133.592 73.7815C133.592 72.8325 133.961 71.9201 134.624 71.234C135.287 70.548 136.191 70.1412 137.149 70.0983H145.242C146.2 70.1412 147.105 70.548 147.768 71.234C148.43 71.9201 148.8 72.8325 148.8 73.7815C148.8 74.7305 148.43 75.643 147.768 76.329C147.105 77.0151 146.2 77.4219 145.242 77.4648Z" fill="#2A83FD"/>
<path d="M30.0384 33.5677C29.5473 33.5652 29.0615 33.4666 28.609 33.2777C28.1565 33.0888 27.7462 32.8132 27.4017 32.4669L23.5916 28.6969C22.9387 27.9971 22.5847 27.0745 22.6039 26.1223C22.6231 25.1701 23.014 24.2621 23.6946 23.5887C24.3752 22.9153 25.2928 22.5285 26.2552 22.5095C27.2175 22.4905 28.15 22.8407 28.8572 23.4868L32.6674 27.2568C33.1861 27.7723 33.5391 28.4283 33.6819 29.142C33.8248 29.8556 33.751 30.5952 33.4699 31.2674C33.1889 31.9397 32.7131 32.5147 32.1024 32.92C31.4918 33.3253 30.7736 33.5428 30.0384 33.5451V33.5677Z" fill="#2A83FD"/>
<path d="M122.587 125.14C122.098 125.142 121.614 125.048 121.163 124.863C120.711 124.677 120.302 124.405 119.958 124.062L116.148 120.292C115.779 119.955 115.483 119.548 115.277 119.095C115.071 118.642 114.96 118.153 114.95 117.656C114.94 117.16 115.031 116.667 115.219 116.206C115.406 115.745 115.686 115.327 116.04 114.976C116.395 114.625 116.818 114.348 117.284 114.163C117.749 113.977 118.248 113.887 118.75 113.897C119.252 113.906 119.746 114.017 120.204 114.22C120.661 114.424 121.073 114.717 121.413 115.082L125.223 118.852C125.743 119.368 126.096 120.024 126.238 120.739C126.381 121.453 126.307 122.193 126.025 122.866C125.743 123.538 125.266 124.113 124.654 124.518C124.042 124.923 123.323 125.139 122.587 125.14Z" fill="#2A83FD"/>
<path d="M26.2205 125.14C25.4846 125.139 24.7654 124.923 24.1536 124.518C23.5418 124.113 23.0648 123.538 22.7828 122.866C22.5008 122.193 22.4264 121.453 22.569 120.739C22.7115 120.024 23.0647 119.368 23.5839 118.852L27.3941 115.082C27.7345 114.717 28.1459 114.424 28.6036 114.22C29.0613 114.017 29.5559 113.906 30.0576 113.897C30.5594 113.887 31.058 113.977 31.5236 114.163C31.9891 114.348 32.412 114.625 32.7669 114.976C33.1218 115.327 33.4013 115.745 33.5887 116.206C33.7761 116.667 33.8676 117.16 33.8576 117.656C33.8476 118.153 33.7363 118.642 33.5305 119.095C33.3246 119.548 33.0284 119.955 32.6597 120.292L28.8495 124.062C28.5056 124.405 28.096 124.677 27.6446 124.863C27.1932 125.048 26.7091 125.142 26.2205 125.14Z" fill="#2A83FD"/>
<path d="M118.769 33.5677C118.034 33.5654 117.316 33.3479 116.705 32.9426C116.095 32.5373 115.619 31.9623 115.338 31.2901C115.057 30.6178 114.983 29.8782 115.126 29.1646C115.269 28.4509 115.622 27.795 116.14 27.2794L119.95 23.5094C120.66 22.8918 121.581 22.5641 122.525 22.5927C123.47 22.6212 124.368 23.0039 125.039 23.6633C125.709 24.3227 126.101 25.2094 126.135 26.144C126.17 27.0785 125.844 27.9911 125.224 28.6969L121.414 32.4669C121.068 32.8134 120.656 33.0891 120.202 33.278C119.749 33.4669 119.262 33.5653 118.769 33.5677Z" fill="#2A83FD"/>
</svg>
