<svg width="535" height="157" viewBox="0 0 535 157" fill="none" xmlns="http://www.w3.org/2000/svg">
<path d="M36.8087 99.1977C36.2047 99.1981 35.6105 99.0451 35.0818 98.7529C34.5531 98.4607 34.1072 98.039 33.7859 97.5273C33.3079 96.7914 32.8372 96.0555 32.3886 95.3196C32.3735 95.289 32.3563 95.2595 32.3371 95.2313C28.7671 89.1605 26.644 82.3479 26.133 75.3228C25.6219 68.2976 26.7365 61.2492 29.3903 54.7251C32.044 48.201 36.1654 42.377 41.4342 37.7056C46.703 33.0343 52.9773 29.6413 59.7695 27.7904C66.5618 25.9395 73.6891 25.6805 80.5976 27.0336C87.5061 28.3866 94.0099 31.3153 99.6034 35.5919C105.197 39.8686 109.73 45.3781 112.849 51.6924C115.969 58.0067 117.592 64.9557 117.591 71.9994C117.591 74.9158 117.315 77.8257 116.768 80.6902C116.768 80.6902 116.768 80.727 116.768 80.7491C115.785 85.8666 113.926 90.776 111.274 95.2607C110.803 96.0629 110.325 96.8061 109.847 97.5273C109.315 98.286 108.511 98.8101 107.603 98.9905C106.694 99.171 105.751 98.9937 104.97 98.4957C104.189 97.9978 103.63 97.2175 103.41 96.3174C103.189 95.4173 103.324 94.4668 103.787 93.6639L103.868 93.5314C104.28 92.9206 104.691 92.273 105.081 91.6181C107.307 87.8532 108.869 83.7336 109.7 79.4392C109.7 79.4392 109.7 79.4024 109.7 79.3803C110.89 73.2473 110.576 66.9169 108.783 60.9323C106.991 54.9477 103.774 49.4875 99.4088 45.0203C95.0437 40.5531 89.6606 37.2122 83.7214 35.2843C77.7821 33.3563 71.4641 32.8989 65.3094 33.9513C59.1547 35.0037 53.347 37.5344 48.3846 41.3263C43.4223 45.1182 39.4535 50.0582 36.8187 55.7223C34.1838 61.3864 32.9617 67.6055 33.2572 73.8461C33.5526 80.0867 35.3568 86.1624 38.5149 91.5519L38.5591 91.6255C38.9488 92.2951 39.3607 92.9353 39.7799 93.5535C39.824 93.6124 39.8608 93.6859 39.9049 93.7522C40.23 94.2989 40.4043 94.922 40.4103 95.5581C40.4163 96.1941 40.2537 96.8204 39.939 97.3731C39.6243 97.9258 39.1688 98.3852 38.6189 98.7044C38.069 99.0237 37.4444 99.1913 36.8087 99.1904V99.1977Z" fill="white"/>
<path d="M68.3968 133.805C67.6855 133.805 66.9901 133.594 66.3987 133.199C65.8073 132.804 65.3463 132.242 65.0741 131.584C64.8019 130.927 64.7307 130.203 64.8695 129.505C65.0082 128.807 65.3508 128.166 65.8537 127.663C66.3567 127.159 66.9975 126.817 67.6951 126.678C68.3928 126.539 69.1159 126.61 69.773 126.882C70.4302 127.155 70.9919 127.616 71.387 128.208C71.7822 128.8 71.9931 129.495 71.9931 130.207C71.9931 131.161 71.6142 132.077 70.9398 132.752C70.2653 133.426 69.3506 133.805 68.3968 133.805Z" fill="white"/>
<path d="M113.23 83.6697C112.276 83.6697 111.362 83.2906 110.687 82.6157C110.013 81.9409 109.634 81.0256 109.634 80.0712C109.634 79.3595 109.845 78.6637 110.24 78.072C110.635 77.4802 111.197 77.019 111.854 76.7466C112.511 76.4743 113.234 76.403 113.932 76.5418C114.629 76.6807 115.27 77.0234 115.773 77.5267C116.276 78.0299 116.619 78.6711 116.757 79.3692C116.896 80.0672 116.825 80.7907 116.553 81.4483C116.281 82.1058 115.82 82.6678 115.228 83.0632C114.637 83.4586 113.941 83.6697 113.23 83.6697Z" fill="white"/>
<path d="M57.1074 131.31C56.1536 131.31 55.2388 130.931 54.5644 130.256C53.8899 129.582 53.511 128.666 53.511 127.712C53.511 127 53.722 126.304 54.1171 125.713C54.5123 125.121 55.074 124.66 55.7311 124.387C56.3883 124.115 57.1114 124.044 57.809 124.183C58.5067 124.321 59.1475 124.664 59.6504 125.167C60.1534 125.671 60.4959 126.312 60.6347 127.01C60.7734 127.708 60.7022 128.431 60.43 129.089C60.1578 129.747 59.6969 130.309 59.1054 130.704C58.514 131.099 57.8187 131.31 57.1074 131.31Z" fill="white"/>
<path d="M59.8946 112.944C59.2582 112.946 58.6331 112.776 58.0854 112.451C57.6775 112.214 57.3204 111.898 57.0345 111.523C56.7486 111.147 56.5396 110.718 56.4194 110.262C56.2991 109.805 56.2701 109.329 56.3338 108.862C56.3976 108.394 56.553 107.943 56.791 107.535C58.8195 104.057 60.2864 100.279 61.1376 96.3426C61.72 93.6465 62.0134 90.8959 62.0128 88.1375C62.0305 80.17 59.5679 72.3948 54.9671 65.8917C54.418 65.1111 54.2013 64.1441 54.3648 63.2036C54.5282 62.2631 55.0584 61.4261 55.8386 60.8767C56.6188 60.3273 57.5852 60.1105 58.5252 60.274C59.4651 60.4376 60.3017 60.968 60.8507 61.7487C65.9006 68.9147 68.7875 77.3809 69.1682 86.1409C69.549 94.9008 67.4074 103.586 62.9983 111.163C62.6824 111.706 62.2293 112.157 61.6846 112.469C61.1399 112.782 60.5226 112.946 59.8946 112.944Z" fill="white"/>
<path d="M73.3904 92.9938C71.04 92.9926 68.7011 92.6657 66.4404 92.0224C65.5584 91.7323 64.8227 91.1122 64.3872 90.2918C63.9518 89.4714 63.8503 88.5142 64.1039 87.6207C64.3576 86.7271 64.9468 85.9662 65.7483 85.4974C66.5497 85.0285 67.5014 84.8879 68.404 85.1051C71.751 86.0615 75.3024 86.0341 78.6343 85.0259C81.9661 84.0178 84.9376 82.0716 87.1941 79.4197C89.4506 76.7678 90.8967 73.5221 91.3598 70.0702C91.8229 66.6183 91.2835 63.106 89.8059 59.9525C87.8881 55.9171 84.568 52.7181 80.4655 50.9526C74.7584 48.5242 67.7348 49.3999 62.8513 50.5626C58.049 51.713 53.5107 53.7711 49.4807 56.6263C45.5045 59.4565 42.0922 63.0056 39.4196 67.0906C36.7189 71.2487 34.8437 75.8883 33.8963 80.756C33.7149 81.6918 33.1694 82.5172 32.3798 83.0506C31.5902 83.584 30.6211 83.7817 29.6858 83.6002C28.7505 83.4187 27.9256 82.8728 27.3925 82.0828C26.8595 81.2927 26.6619 80.3231 26.8433 79.3872C28.5234 70.7491 32.6535 62.7776 38.7401 56.4252C44.8267 50.0727 52.6125 45.608 61.1671 43.5643C69.8014 41.5112 77.2295 41.7688 83.2309 44.3002C87.812 46.2389 91.7203 49.4857 94.4673 53.6347C97.2142 57.7837 98.678 62.6509 98.6755 67.6278C98.6755 74.3438 96.0137 80.7857 91.2737 85.5409C86.5337 90.296 80.1025 92.9762 73.3904 92.9938Z" fill="white"/>
<path d="M94.3364 118.919C93.694 118.917 93.0639 118.743 92.5116 118.415C91.9592 118.087 91.5048 117.617 91.1955 117.053C90.8862 116.49 90.7334 115.854 90.7529 115.212C90.7723 114.569 90.9635 113.944 91.3063 113.4L105.111 91.5592C105.62 90.7886 106.407 90.2442 107.307 90.039C108.207 89.8338 109.152 89.9837 109.945 90.4575C110.738 90.9313 111.317 91.6926 111.563 92.583C111.81 93.4734 111.703 94.4246 111.267 95.2386L111.193 95.3711L97.3812 117.227C97.058 117.743 96.6092 118.17 96.0767 118.466C95.5443 118.762 94.9455 118.918 94.3364 118.919Z" fill="white"/>
<path d="M60.1375 136.095C59.5314 136.095 58.935 135.943 58.4039 135.651C57.8727 135.358 57.4242 134.937 57.1 134.424L54.0699 129.634L54.0111 129.545L33.786 97.5343L33.7419 97.4607L32.4328 95.3929L32.3813 95.3119C32.1109 94.9108 31.924 94.4592 31.832 93.9842C31.74 93.5092 31.7447 93.0205 31.8457 92.5474C31.9468 92.0742 32.1422 91.6263 32.4202 91.2304C32.6982 90.8346 33.0532 90.4989 33.4639 90.2434C33.8746 89.9879 34.3325 89.818 34.8103 89.7437C35.2882 89.6694 35.7761 89.6922 36.2448 89.8109C36.7136 89.9296 37.1537 90.1416 37.5387 90.4344C37.9237 90.7272 38.2458 91.0946 38.4856 91.5147L39.8388 93.6562L39.8903 93.7371L60.1448 125.792L60.1963 125.881L61.7408 128.324L67.4406 126.749H67.5068L82.9146 122.481C83.369 122.355 83.8438 122.319 84.3119 122.377C84.7799 122.434 85.2321 122.583 85.6425 122.816C86.053 123.048 86.4137 123.359 86.704 123.731C86.9943 124.103 87.2087 124.528 87.3347 124.983C87.4607 125.437 87.496 125.913 87.4386 126.381C87.3811 126.849 87.232 127.302 86.9999 127.712C86.7677 128.123 86.4569 128.484 86.0853 128.774C85.7137 129.065 85.2886 129.279 84.8341 129.405L69.3895 133.696H69.316L61.123 135.97C60.8019 136.057 60.4702 136.099 60.1375 136.095Z" fill="white"/>
<path d="M66.5065 146.191C65.6352 146.195 64.7921 145.882 64.1345 145.31C63.477 144.738 63.0498 143.946 62.9328 143.082C62.8157 142.218 63.0168 141.341 63.4984 140.614C63.9801 139.888 64.7094 139.361 65.5504 139.133L78.8769 135.454C79.337 135.31 79.8214 135.26 80.3011 135.308C80.7809 135.355 81.2462 135.498 81.6695 135.729C82.0928 135.96 82.4654 136.274 82.7652 136.651C83.065 137.029 83.2858 137.463 83.4145 137.928C83.5432 138.393 83.5772 138.879 83.5145 139.357C83.4517 139.835 83.2936 140.296 83.0493 140.712C82.8051 141.128 82.4798 141.49 82.0928 141.778C81.7058 142.066 81.2649 142.272 80.7964 142.386L67.4699 146.065C67.1557 146.15 66.8317 146.192 66.5065 146.191Z" fill="white"/>
<path d="M70.309 157C69.4377 157.004 68.5946 156.691 67.937 156.119C67.2794 155.547 66.8523 154.755 66.7353 153.891C66.6182 153.027 66.8193 152.15 67.3009 151.424C67.7826 150.697 68.5119 150.171 69.3529 149.943L72.4418 149.089C72.8962 148.964 73.3709 148.929 73.8388 148.987C74.3067 149.045 74.7585 149.194 75.1686 149.427C75.5788 149.66 75.939 149.971 76.2289 150.343C76.5188 150.715 76.7327 151.14 76.8582 151.595C76.9838 152.05 77.0186 152.525 76.9607 152.993C76.9028 153.461 76.7533 153.913 76.5208 154.323C76.2882 154.734 75.9772 155.094 75.6054 155.384C75.2336 155.674 74.8084 155.888 74.354 156.014L71.2651 156.875C70.9535 156.96 70.6319 157.002 70.309 157Z" fill="white"/>
<path d="M71.7799 15.0121C70.8261 15.0121 69.9113 14.6329 69.2369 13.9581C68.5624 13.2833 68.1835 12.368 68.1835 11.4136V3.59848C68.1835 2.64411 68.5624 1.72882 69.2369 1.05397C69.9113 0.379127 70.8261 0 71.7799 0C72.7337 0 73.6485 0.379127 74.3229 1.05397C74.9974 1.72882 75.3763 2.64411 75.3763 3.59848V11.4136C75.3763 11.8861 75.2833 12.3541 75.1025 12.7907C74.9218 13.2273 74.6569 13.6239 74.3229 13.9581C73.989 14.2922 73.5925 14.5573 73.1562 14.7382C72.7198 14.919 72.2522 15.0121 71.7799 15.0121Z" fill="white"/>
<path d="M11.2517 75.6047H3.43379C2.50907 75.5628 1.63609 75.1658 0.996508 74.4962C0.356926 73.8266 0 72.9361 0 72.0099C0 71.0837 0.356926 70.1931 0.996508 69.5236C1.63609 68.854 2.50907 68.457 3.43379 68.4151H11.2517C12.1764 68.457 13.0494 68.854 13.689 69.5236C14.3286 70.1931 14.6855 71.0837 14.6855 72.0099C14.6855 72.9361 14.3286 73.8266 13.689 74.4962C13.0494 75.1658 12.1764 75.5628 11.2517 75.6047Z" fill="white"/>
<path d="M140.177 75.6047H132.367C131.442 75.5628 130.569 75.1658 129.929 74.4962C129.29 73.8266 128.933 72.9361 128.933 72.0099C128.933 71.0837 129.29 70.1931 129.929 69.5236C130.569 68.854 131.442 68.457 132.367 68.4151H140.177C141.102 68.457 141.975 68.854 142.615 69.5236C143.254 70.1931 143.611 71.0837 143.611 72.0099C143.611 72.9361 143.254 73.8266 142.615 74.4962C141.975 75.1658 141.102 75.5628 140.177 75.6047Z" fill="white"/>
<path d="M28.9906 32.7623C28.5166 32.7598 28.0478 32.6637 27.6111 32.4793C27.1744 32.2949 26.7784 32.0259 26.446 31.6879L22.7687 28.0085C22.1385 27.3255 21.7969 26.425 21.8154 25.4957C21.834 24.5664 22.2112 23.6803 22.8681 23.023C23.525 22.3657 24.4106 21.9883 25.3394 21.9697C26.2682 21.9512 27.1681 22.293 27.8507 22.9235L31.528 26.6029C32.0286 27.1061 32.3693 27.7463 32.5072 28.4428C32.645 29.1394 32.5738 29.8612 32.3025 30.5173C32.0313 31.1734 31.5721 31.7346 30.9827 32.1301C30.3934 32.5257 29.7003 32.738 28.9906 32.7402V32.7623Z" fill="white"/>
<path d="M118.312 122.135C117.841 122.136 117.373 122.044 116.938 121.864C116.502 121.683 116.107 121.417 115.775 121.082L112.097 117.403C111.742 117.074 111.456 116.677 111.257 116.235C111.058 115.793 110.951 115.315 110.941 114.831C110.932 114.346 111.02 113.865 111.201 113.415C111.382 112.965 111.651 112.557 111.994 112.214C112.336 111.872 112.745 111.602 113.194 111.421C113.643 111.24 114.125 111.151 114.609 111.161C115.093 111.171 115.57 111.278 116.012 111.477C116.454 111.676 116.851 111.962 117.179 112.318L120.857 115.997C121.358 116.501 121.699 117.142 121.836 117.839C121.974 118.536 121.902 119.259 121.63 119.915C121.358 120.571 120.897 121.133 120.307 121.528C119.716 121.923 119.022 122.134 118.312 122.135Z" fill="white"/>
<path d="M25.3059 122.135C24.5957 122.134 23.9015 121.923 23.3111 121.528C22.7206 121.133 22.2603 120.571 21.9881 119.915C21.7159 119.259 21.6441 118.536 21.7817 117.839C21.9193 117.142 22.2601 116.501 22.7612 115.997L26.4385 112.318C26.7671 111.962 27.1642 111.676 27.6059 111.477C28.0477 111.278 28.525 111.171 29.0092 111.161C29.4935 111.151 29.9747 111.24 30.4241 111.421C30.8734 111.602 31.2815 111.872 31.624 112.214C31.9665 112.557 32.2363 112.965 32.4172 113.415C32.5981 113.865 32.6863 114.346 32.6767 114.831C32.667 115.315 32.5596 115.793 32.361 116.235C32.1623 116.677 31.8764 117.074 31.5206 117.403L27.8433 121.082C27.5113 121.417 27.116 121.683 26.6804 121.864C26.2447 122.044 25.7775 122.136 25.3059 122.135Z" fill="white"/>
<path d="M114.628 32.7609C113.918 32.7587 113.225 32.5464 112.636 32.1508C112.046 31.7553 111.587 31.1941 111.316 30.538C111.044 29.8818 110.973 29.1601 111.111 28.4635C111.249 27.767 111.59 27.1268 112.09 26.6236L115.768 22.9442C116.453 22.3414 117.341 22.0216 118.253 22.0495C119.164 22.0774 120.031 22.4509 120.678 23.0944C121.325 23.7379 121.704 24.6034 121.737 25.5155C121.77 26.4276 121.455 27.3183 120.857 28.0071L117.18 31.6865C116.846 32.0248 116.449 32.2938 116.011 32.4782C115.573 32.6625 115.103 32.7586 114.628 32.7609Z" fill="white"/>
<path d="M225.564 51.6226C228.714 54.9828 230.47 59.4152 230.476 64.0223C230.506 68.6628 228.731 73.1329 225.527 76.4882C222.188 80.1161 217.731 81.9117 212.163 81.9117H198.484V97.6523H188.467V46.1403H212.597C217.944 46.1256 222.254 47.9579 225.564 51.6226ZM218.209 70.27C219.791 68.6029 220.666 66.3874 220.651 64.0885C220.675 61.804 219.828 59.596 218.283 57.9145C217.537 57.0606 216.615 56.3798 215.58 55.9197C214.544 55.4596 213.421 55.2312 212.289 55.2506H198.462V72.9118H211.818C213.013 72.9561 214.205 72.7433 215.311 72.2875C216.417 71.8317 217.413 71.1437 218.231 70.27H218.209Z" fill="white"/>
<path d="M238.251 53.5287C237.707 53.0032 237.277 52.3715 236.987 51.6727C236.698 50.974 236.554 50.223 236.567 49.4666C236.555 48.7211 236.698 47.9813 236.988 47.2945C237.278 46.6077 237.709 45.9891 238.251 45.4781C238.799 44.9487 239.447 44.5332 240.156 44.2553C240.865 43.9774 241.623 43.8428 242.384 43.8592C243.141 43.8432 243.892 43.9782 244.596 44.2561C245.299 44.5341 245.94 44.9495 246.481 45.4781C247.024 45.9891 247.454 46.6077 247.744 47.2945C248.034 47.9813 248.177 48.7211 248.165 49.4666C248.181 50.2235 248.04 50.9755 247.75 51.6748C247.46 52.3741 247.028 53.0054 246.481 53.5287C245.947 54.0684 245.307 54.4931 244.603 54.7766C243.898 55.0601 243.144 55.1963 242.384 55.1771C241.62 55.1966 240.859 55.0606 240.149 54.7773C239.438 54.4939 238.793 54.0691 238.251 53.5287ZM237.354 60.4239H247.128V97.6524H237.354V60.4239Z" fill="white"/>
<path d="M290.166 63.8013C292.638 66.7449 293.895 70.7775 293.895 75.8772V97.6521H284.165V77.7096C284.165 74.766 283.481 72.5584 282.157 70.8805C280.833 69.2027 278.848 68.4374 276.23 68.4374C274.992 68.3901 273.76 68.6314 272.632 69.1423C271.504 69.6531 270.509 70.4195 269.728 71.381C268.081 73.3433 267.254 75.9655 267.25 79.2476V97.6447H257.556V60.4236H267.25V65.1333C268.642 63.2829 270.458 61.7947 272.546 60.7944C274.634 59.7941 276.931 59.3111 279.245 59.386C284.025 59.386 287.651 60.8578 290.166 63.8013Z" fill="white"/>
<path d="M327.417 96.4452C324.662 97.5849 321.713 98.182 318.732 98.2039C314.598 98.2039 311.509 97.0192 309.428 94.6864C307.347 92.3537 306.302 89.079 306.302 84.9065V68.9452H300.058V60.4237H306.302V48.3552H316.069V60.4237H326.983V68.9452H316.099V84.9286C316.099 88.0561 317.57 89.6383 320.658 89.6383C322.191 89.6425 323.703 89.2845 325.071 88.5933L327.417 96.4452Z" fill="white"/>
<path d="M336.089 93.0535C332.537 89.2784 330.779 84.6055 330.779 79.0717C330.779 73.5378 332.537 68.7178 336.089 64.9869C337.751 63.1865 339.776 61.7592 342.03 60.799C344.284 59.8388 346.716 59.3675 349.165 59.4162C354.262 59.4162 358.248 61.2486 361.124 64.9501V60.4538H370.928V97.6822H361.124V93.1197C358.251 96.858 354.264 98.7272 349.165 98.7272C346.706 98.7758 344.266 98.2942 342.01 97.3152C339.753 96.3362 337.734 94.8827 336.089 93.0535ZM358.395 86.8721C359.411 85.829 360.205 84.591 360.729 83.2327C361.254 81.8744 361.498 80.424 361.447 78.9687C361.494 77.5293 361.248 76.0954 360.723 74.7544C360.198 73.4133 359.406 72.1932 358.395 71.1683C357.414 70.1662 356.239 69.3752 354.941 68.8437C353.644 68.3123 352.251 68.0516 350.85 68.0776C349.455 68.0305 348.066 68.2782 346.773 68.8044C345.481 69.3306 344.314 70.1236 343.348 71.1315C342.359 72.1751 341.59 73.4062 341.084 74.7523C340.579 76.0983 340.349 77.532 340.406 78.9687C340.345 80.4213 340.574 81.8714 341.079 83.2346C341.584 84.5978 342.356 85.8468 343.348 86.9089C344.311 87.922 345.477 88.7208 346.77 89.2533C348.062 89.7858 349.452 90.0401 350.85 89.9996C352.254 90.0288 353.65 89.7667 354.949 89.2297C356.247 88.6927 357.421 87.8925 358.395 86.8794V86.8721Z" fill="white"/>
<path d="M403.155 59.8862V69.0112C399.096 68.3636 396.007 69.048 393.962 71.0643C391.918 73.0807 390.873 76.5614 390.873 81.4477V97.6372H381.18V60.4234H390.873V65.9205C393.315 61.1078 397.409 59.0964 403.155 59.8862Z" fill="white"/>
<path d="M442.818 63.8014C445.296 66.745 446.554 70.7776 446.554 75.8773V97.6522H436.824V77.7097C436.824 74.7661 436.14 72.5585 434.809 70.8807C433.478 69.2028 431.506 68.4375 428.881 68.4375C427.644 68.3897 426.414 68.6308 425.286 69.1417C424.159 69.6526 423.166 70.4194 422.387 71.3811C420.734 73.3434 419.908 75.9656 419.908 79.2477V97.6448H410.208V60.4237H419.908V65.1334C421.3 63.2825 423.117 61.794 425.204 60.7937C427.292 59.7934 429.59 59.3106 431.904 59.3861C436.677 59.3861 440.303 60.8579 442.818 63.8014Z" fill="white"/>
<path d="M492.572 60.424L470.199 113.106H460.219L466.97 96.8282L450.128 60.424H460.793L471.824 85.5765L482.165 60.424H492.572Z" fill="white"/>
<path d="M500.169 93.0536C496.609 89.2785 494.851 84.6057 494.851 79.0718C494.851 73.5379 496.609 68.7179 500.169 64.987C501.829 63.1861 503.853 61.7583 506.106 60.798C508.359 59.8377 510.79 59.3668 513.238 59.4163C518.335 59.4163 522.321 61.2487 525.196 64.9502V60.4539H535V97.6823H525.196V93.1198C522.318 96.8581 518.332 98.7273 513.238 98.7273C510.78 98.7763 508.34 98.2948 506.085 97.3158C503.83 96.3367 501.812 94.883 500.169 93.0536ZM522.468 86.8795C523.491 85.8387 524.292 84.6009 524.823 83.2411C525.354 81.8813 525.604 80.4279 525.557 78.9688C525.604 77.5294 525.357 76.0955 524.832 74.7545C524.308 73.4135 523.516 72.1933 522.505 71.1684C521.523 70.1663 520.348 69.3753 519.05 68.8438C517.753 68.3124 516.361 68.0517 514.959 68.0777C513.564 68.0307 512.175 68.2783 510.883 68.8045C509.59 69.3307 508.423 70.1237 507.457 71.1316C506.469 72.1752 505.699 73.4063 505.194 74.7524C504.688 76.0984 504.458 77.5321 504.515 78.9688C504.454 80.4214 504.683 81.8717 505.188 83.2349C505.693 84.5982 506.465 85.8472 507.457 86.909C508.421 87.9221 509.587 88.7209 510.879 89.2534C512.172 89.7859 513.562 90.0402 514.959 89.9997C516.358 90.0247 517.747 89.7605 519.039 89.2236C520.331 88.6867 521.498 87.8887 522.468 86.8795Z" fill="white"/>
</svg>
